<svg xmlns="http://www.w3.org/2000/svg" width="32px" height="32px"  viewBox="0 0 24 24"><g>
                <path d="M20.435,19.925H3.565c-0.827,0-1.5-0.673-1.5-1.5v-9.14c0-0.827,0.673-1.5,1.5-1.5h2.657
                    c0.26,0,0.475-0.195,0.498-0.454l0.166-1.802C6.885,4.748,7.558,4.075,8.385,4.075h7.23c0.827,0,1.5,0.673,1.5,1.5l0.164,1.756
                    c0.023,0.259,0.238,0.454,0.498,0.454h2.657c0.827,0,1.5,0.673,1.5,1.5v9.14C21.935,19.252,21.262,19.925,20.435,19.925z
                    M3.565,8.785c-0.275,0-0.5,0.225-0.5,0.5v9.14c0,0.275,0.225,0.5,0.5,0.5h16.869c0.275,0,0.5-0.225,0.5-0.5v-9.14
                    c0-0.275-0.225-0.5-0.5-0.5h-2.657c-0.779,0-1.422-0.586-1.494-1.362l-0.166-1.802c-0.002-0.321-0.227-0.546-0.502-0.546h-7.23
                    c-0.275,0-0.5,0.225-0.5,0.5L7.717,7.423C7.645,8.199,7.002,8.785,6.223,8.785H3.565z"/>
                <path d="M11.999,17.282c-2.206,0-4-1.794-4-4s1.794-4,4-4s4,1.794,4,4S14.205,17.282,11.999,17.282z
                    M11.999,10.282c-1.654,0-3,1.346-3,3s1.346,3,3,3s3-1.346,3-3S13.653,10.282,11.999,10.282z"/>
            </g></svg>